<?xml version="1.0" encoding="utf-8"?>
<!-- Generator: Adobe Illustrator 25.4.0, SVG Export Plug-In . SVG Version: 6.00 Build 0)  -->
<svg version="1.1" id="Layer_1" xmlns="http://www.w3.org/2000/svg" xmlns:xlink="http://www.w3.org/1999/xlink" x="0px" y="0px"
	 viewBox="0 0 232 233" style="enable-background:new 0 0 232 233;" xml:space="preserve">
<style type="text/css">
	.st0{fill:#FFFFFF;}
	.st1{fill:#F0F8FF;}
</style>
<g>
	<path class="st0" d="M12.6,15.5v156.7c0,27.1,21.9,49,49,49h107.7c27.1,0,49-21.9,49-49V15.5l-43.3,31.9L54.6,47.3L12.6,15.5z"/>
	<path class="st1" d="M169.3,226.2H61.6c-29.8,0-54-24.2-54-54V15.5c0-1.9,1.1-3.6,2.8-4.5c1.7-0.8,3.7-0.7,5.2,0.5l40.7,30.7
		l117,0.2l42-30.9c1.5-1.1,3.5-1.3,5.2-0.4c1.7,0.9,2.7,2.6,2.7,4.5v156.7C223.3,202,199,226.2,169.3,226.2z M17.6,25.6v146.6
		c0,24.3,19.7,44,44,44h107.7c24.3,0,44-19.7,44-44V25.4l-35.4,26c-0.9,0.6-1.9,1-3,1c0,0,0,0,0,0L54.6,52.3c-1.1,0-2.1-0.4-3-1
		L17.6,25.6z"/>
</g>
<g>
	<polygon class="st0" points="65.3,158.3 113.9,220.2 166.4,158.3 115.6,98.7 	"/>
	<path class="st1" d="M113.9,225.2C113.9,225.2,113.9,225.2,113.9,225.2c-1.6,0-3-0.7-3.9-1.9l-48.7-61.9c-1.5-1.9-1.4-4.5,0.1-6.3
		l50.3-59.6c0.9-1.1,2.3-1.8,3.8-1.8c0,0,0,0,0,0c1.5,0,2.9,0.6,3.8,1.8l50.8,59.6c1.6,1.9,1.6,4.6,0,6.5l-52.5,61.9
		C116.8,224.6,115.4,225.2,113.9,225.2z M71.7,158.4l42.4,53.9l45.8-54l-44.3-51.9L71.7,158.4z"/>
</g>
<g>
	<circle class="st0" cx="68.3" cy="122.9" r="35.3"/>
	<path class="st1" d="M68.3,163.2c-22.2,0-40.3-18.1-40.3-40.3c0-22.2,18.1-40.3,40.3-40.3s40.3,18.1,40.3,40.3
		C108.6,145.1,90.5,163.2,68.3,163.2z M68.3,92.5c-16.7,0-30.3,13.6-30.3,30.3s13.6,30.3,30.3,30.3s30.3-13.6,30.3-30.3
		S85,92.5,68.3,92.5z"/>
</g>
<g>
	<path class="st0" d="M199.3,122.9c0,19.5-15.8,35.3-35.3,35.3s-35.3-15.8-35.3-35.3s15.8-35.3,35.3-35.3S199.3,103.4,199.3,122.9z"
		/>
	<path class="st1" d="M163.9,163.2c-22.2,0-40.3-18.1-40.3-40.3c0-22.2,18.1-40.3,40.3-40.3c22.2,0,40.3,18.1,40.3,40.3
		C204.3,145.1,186.2,163.2,163.9,163.2z M163.9,92.5c-16.7,0-30.3,13.6-30.3,30.3c0,16.7,13.6,30.3,30.3,30.3
		c16.7,0,30.3-13.6,30.3-30.3C194.3,106.1,180.7,92.5,163.9,92.5z"/>
</g>
<g>
	<path class="st0" d="M114.9,164.2l103-148.7l-41,30.7c-16.1-16.8-36.8-26.3-62-26.3"/>
	<path class="st1" d="M114.9,169.2c-1,0-2-0.3-2.8-0.9c-2.3-1.6-2.8-4.7-1.3-7l85.5-123.4l-16.4,12.3c-2,1.5-4.9,1.3-6.6-0.5
		c-15.7-16.5-35.4-24.8-58.4-24.8c-2.8,0-5-2.2-5-5s2.2-5,5-5c24.3,0,45.3,8.3,62.4,24.8l37.6-28.1c2-1.5,4.7-1.3,6.5,0.4
		c1.8,1.7,2,4.4,0.6,6.4L119,167.1C118.1,168.5,116.5,169.2,114.9,169.2z"/>
</g>
<g>
	<path class="st0" d="M115.4,19.9c-25.3,0-46.1,9.6-62.2,26.6L12.6,15.5l102.3,148.7V24.8"/>
	<path class="st1" d="M114.9,169.2c-1.6,0-3.2-0.8-4.1-2.2L8.5,18.4c-1.4-2-1.1-4.8,0.7-6.5c1.8-1.7,4.5-1.8,6.5-0.4l37.1,28.3
		c17.2-16.6,38.2-25,62.7-25c2.8,0,5,2.2,5,5c0,1.1-0.3,2.1-0.9,2.9c0.3,0.6,0.4,1.3,0.4,2v139.4c0,2.2-1.4,4.1-3.5,4.8
		C115.9,169.1,115.4,169.2,114.9,169.2z M34.4,38.4l75.5,109.7V25c-20.7,1.2-38.6,9.6-53.1,24.9c-1.8,1.9-4.6,2.1-6.7,0.5L34.4,38.4
		z"/>
</g>
<circle class="st1" cx="68.3" cy="122.9" r="14"/>
<circle class="st1" cx="163.9" cy="122.9" r="14"/>
<path class="st0" d="M183.9,134.2c0,6.3-5.1,11.3-11.3,11.3s-11.3-5.1-11.3-11.3c0-6.3,5.1-11.3,11.3-11.3S183.9,128,183.9,134.2z"
	/>
<path class="st0" d="M86.9,135.2c0,6.3-5.1,11.3-11.3,11.3c-6.3,0-11.3-5.1-11.3-11.3c0-6.3,5.1-11.3,11.3-11.3
	C81.9,123.9,86.9,129,86.9,135.2z"/>
<g>
	<path class="st1" d="M57.8,221.2c0-7.7,6.3-14,14-14c7.7,0,14,3.6,14,14"/>
	<path class="st1" d="M87.8,221.2h-4c0-8-4-12-12-12c-6.6,0-12,5.4-12,12h-4c0-8.8,7.2-16,16-16C81.9,205.2,87.8,211,87.8,221.2z"/>
</g>
<g>
	<path class="st1" d="M145.2,221.2c0-7.7,6.3-14,14-14c7.7,0,14,6.3,14,14"/>
	<path class="st1" d="M175.2,221.2h-4c0-6.6-5.4-12-12-12s-12,5.4-12,12h-4c0-8.8,7.2-16,16-16S175.2,212.4,175.2,221.2z"/>
</g>
</svg>
