<?xml version="1.0" encoding="iso-8859-1"?>
<!-- Generator: Adobe Illustrator 19.0.0, SVG Export Plug-In . SVG Version: 6.00 Build 0)  -->
<svg version="1.1" id="Layer_1" xmlns="http://www.w3.org/2000/svg" xmlns:xlink="http://www.w3.org/1999/xlink" x="0px" y="0px"
	 viewBox="0 0 318.188 318.188" style="enable-background:new 0 0 318.188 318.188;" xml:space="preserve">
<g>
	<g>
		<g>
			<path d="M117.727,146.895h0.001h8.361c11.399,0,20.19-2.619,26.372-7.858s9.273-12.803,9.273-22.695
				c0-9.513-2.903-16.669-8.707-21.469c-5.805-4.798-14.281-7.198-25.429-7.198H98.239v91.91h19.488V146.895z M117.728,103.644
				h8.864c5.322,0,9.23,1.09,11.725,3.269c2.493,2.18,3.74,5.554,3.74,10.121c0,4.526-1.488,7.974-4.463,10.342
				c-2.976,2.368-7.461,3.552-13.453,3.552h-6.413V103.644z"/>
			<path d="M128.5,237.363c-3.041-2.647-7.592-3.971-13.652-3.971H98.242v47.979h12.963v-15.917h3.643
				c5.819,0,10.31-1.46,13.472-4.381c3.161-2.92,4.742-7.061,4.742-12.421C133.062,243.773,131.541,240.01,128.5,237.363z
				 M118.212,253.247c-1.149,1.094-2.697,1.641-4.644,1.641h-2.363v-11.026h3.348c3.588,0,5.382,1.619,5.382,4.857
				C119.935,250.643,119.36,252.153,118.212,253.247z"/>
			<path d="M152.817,243.959c0.766-0.591,1.99-0.886,3.676-0.886c3.26,0,7.133,1.029,11.617,3.085l3.971-10.009
				c-5.162-2.297-10.229-3.446-15.193-3.446c-5.623,0-10.043,1.236-13.259,3.708c-3.216,2.473-4.824,5.918-4.824,10.337
				c0,2.363,0.378,4.409,1.132,6.137c0.755,1.729,1.914,3.26,3.479,4.595c1.564,1.335,3.911,2.713,7.038,4.135
				c3.457,1.554,5.584,2.582,6.385,3.085c0.797,0.503,1.377,1.001,1.738,1.493c0.361,0.492,0.541,1.067,0.541,1.723
				c0,1.05-0.447,1.909-1.346,2.576c-0.896,0.668-2.309,1.001-4.232,1.001c-2.232,0-4.682-0.355-7.352-1.067
				c-2.669-0.71-5.24-1.701-7.712-2.97v11.552c2.341,1.116,4.594,1.898,6.76,2.346c2.167,0.448,4.846,0.673,8.04,0.673
				c3.83,0,7.166-0.64,10.01-1.92c2.844-1.28,5.021-3.073,6.531-5.382c1.51-2.308,2.264-4.95,2.264-7.925
				c0-3.238-0.803-5.924-2.412-8.057c-1.607-2.133-4.479-4.129-8.613-5.989c-4.311-1.969-6.953-3.326-7.926-4.07
				c-0.975-0.743-1.461-1.586-1.461-2.527C151.669,245.283,152.052,244.55,152.817,243.959z"/>
			<path d="M219.13,143.061c-2.557-1.927-6.58-4.002-12.07-6.224c-6.161-2.472-10.153-4.337-11.976-5.595
				c-1.823-1.257-2.735-2.745-2.735-4.463c0-3.059,2.829-4.589,8.487-4.589c3.184,0,6.307,0.482,9.367,1.446
				c3.059,0.965,6.349,2.2,9.87,3.709l5.784-13.831c-8.005-3.688-16.241-5.532-24.706-5.532c-8.886,0-15.748,1.708-20.589,5.124
				c-4.84,3.416-7.261,8.246-7.261,14.49c0,3.646,0.576,6.717,1.729,9.21c1.152,2.494,2.996,4.705,5.532,6.632
				c2.536,1.928,6.507,4.023,11.913,6.287c3.772,1.593,6.79,2.986,9.053,4.181c2.263,1.194,3.855,2.263,4.778,3.206
				c0.921,0.943,1.383,2.169,1.383,3.678c0,4.023-3.479,6.035-10.436,6.035c-3.395,0-7.324-0.566-11.787-1.697
				c-4.463-1.132-8.477-2.536-12.039-4.212v15.842c3.143,1.342,6.517,2.357,10.122,3.049c3.604,0.691,7.962,1.037,13.076,1.037
				c9.974,0,17.466-1.886,22.475-5.658c5.008-3.772,7.512-9.262,7.512-16.471c0-3.478-0.608-6.475-1.823-8.99
				C223.572,147.21,221.687,144.989,219.13,143.061z"/>
			<path d="M283.149,52.722L232.624,2.197C231.218,0.79,229.311,0,227.321,0H40.342c-4.142,0-7.5,3.358-7.5,7.5v303.188
				c0,4.142,3.358,7.5,7.5,7.5h237.504c4.142,0,7.5-3.358,7.5-7.5V58.025C285.346,56.036,284.556,54.129,283.149,52.722z
				 M234.821,25.607l24.918,24.919h-24.918V25.607z M47.842,15h171.979v10.263H47.842V15z M47.842,303.188V40.263h171.979v17.763
				c0,4.142,3.358,7.5,7.5,7.5h43.024v237.662H47.842z"/>
			<path d="M196.104,233.392h-16.605v47.979h15.522c7.985,0,14.183-2.166,18.591-6.498c4.408-4.332,6.613-10.501,6.613-18.509
				c0-7.438-2.096-13.127-6.285-17.065C209.751,235.361,203.806,233.392,196.104,233.392z M204.014,267.309
				c-1.838,2.287-4.726,3.43-8.664,3.43h-2.888v-26.877h3.774c3.545,0,6.186,1.061,7.926,3.183c1.739,2.123,2.609,5.382,2.609,9.78
				C206.77,261.528,205.852,265.023,204.014,267.309z"/>
		</g>
	</g>
</g>
<g>
</g>
<g>
</g>
<g>
</g>
<g>
</g>
<g>
</g>
<g>
</g>
<g>
</g>
<g>
</g>
<g>
</g>
<g>
</g>
<g>
</g>
<g>
</g>
<g>
</g>
<g>
</g>
<g>
</g>
</svg>
