<svg id="Layer_1" data-name="Layer 1" xmlns="http://www.w3.org/2000/svg" viewBox="0 0 200 200.98"><defs><style>.cls-1{fill:#00a551;}.cls-2{fill:#fff;}.cls-3{fill:#faaf40;}.cls-4{fill:#231f20;}.cls-5{fill:#09572f;}.cls-6{fill:#006838;}</style></defs><title>yhunter-logo</title><path class="cls-1" d="M.17-2.33V150.76a47.77,47.77,0,0,0,47.65,47.88h104.7a47.77,47.77,0,0,0,47.65-47.88V-2.33L158,28.84,41,28.68Z" transform="translate(-0.17 2.33)"/><polygon class="cls-2" points="51.22 139.49 98.54 200 149.59 139.49 100.16 81.27 51.22 139.49"/><ellipse class="cls-3" cx="54.13" cy="104.89" rx="34.36" ry="34.53"/><path class="cls-4" d="M54.3,142.08a39.53,39.53,0,1,1,39.36-39.53A39.49,39.49,0,0,1,54.3,142.08ZM54.3,73a29.53,29.53,0,1,0,29.36,29.52A29.47,29.47,0,0,0,54.3,73Z" transform="translate(-0.17 2.33)"/><path class="cls-3" d="M181.69,102.55A34.36,34.36,0,1,1,147.33,68,34.44,34.44,0,0,1,181.69,102.55Z" transform="translate(-0.17 2.33)"/><path class="cls-4" d="M147.33,142.08a39.53,39.53,0,1,1,39.36-39.53A39.49,39.49,0,0,1,147.33,142.08Zm0-69.06a29.53,29.53,0,1,0,29.36,29.53A29.48,29.48,0,0,0,147.33,73Z" transform="translate(-0.17 2.33)"/><path class="cls-5" d="M99.68,142.94,199.84-2.33l-39.9,30C144.27,11.18,124.14,1.9,99.68,1.9" transform="translate(-0.17 2.33)"/><path class="cls-6" d="M100.17,1.9c-24.58,0-44.81,9.39-60.49,26L.17-2.33,99.68,142.94l.49-141" transform="translate(-0.17 2.33)"/><ellipse class="cls-4" cx="54.13" cy="104.89" rx="13.61" ry="13.68"/><ellipse class="cls-4" cx="147.16" cy="104.89" rx="13.61" ry="13.68"/><path class="cls-2" d="M166.78,113.63a11,11,0,1,1-11-11.08A11,11,0,0,1,166.78,113.63Z" transform="translate(-0.17 2.33)"/><path class="cls-2" d="M72.46,114.61a11,11,0,1,1-11-11.08A11.06,11.06,0,0,1,72.46,114.61Z" transform="translate(-0.17 2.33)"/><path class="cls-5" d="M44.09,198.64A13.65,13.65,0,0,1,57.7,185c7.52,0,13.62,3.52,13.62,13.68" transform="translate(-0.17 2.33)"/><path class="cls-5" d="M129.1,198.64a13.62,13.62,0,1,1,27.23,0" transform="translate(-0.17 2.33)"/></svg>