<svg xmlns="http://www.w3.org/2000/svg" xmlns:xlink="http://www.w3.org/1999/xlink" width="440" height="670" viewBox="0 0 440 670"><svg viewBox="0 0 20 20" width="20" height="20" id="20x20" y="0"><path fill="#488FCD" d="M15 20H5c-2.8 0-5-2.2-5-5V5c0-2.8 2.2-5 5-5h10c2.8 0 5 2.2 5 5v10c0 2.8-2.2 5-5 5z"/></svg>
<svg viewBox="0 0 100 200" width="100" height="200" id="r-100x200" y="20"><path fill="#ED1968" d="M0 0h100v200H0z"/></svg>
<svg viewBox="0 0 20 20" width="20" height="20" id="r-20x20-1" y="220"><path fill="#F8991D" d="M15 20H5c-2.8 0-5-2.2-5-5V5c0-2.8 2.2-5 5-5h10c2.8 0 5 2.2 5 5v10c0 2.8-2.2 5-5 5z"/></svg>
<svg viewBox="0 0 20 20" width="20" height="20" id="r-20x20-2" y="240"><path fill="#CADB2A" d="M15 20H5c-2.8 0-5-2.2-5-5V5c0-2.8 2.2-5 5-5h10c2.8 0 5 2.2 5 5v10c0 2.8-2.2 5-5 5z"/></svg>
<svg viewBox="NaN 1 1 20 20" width="1" height="20" id="r-20x20-3" y="260"><path fill="#98509F" d="M14 19H4c-2.8 0-5-2.2-5-5V4c0-2.8 2.2-5 5-5h10c2.8 0 5 2.2 5 5v10c0 2.8-2.2 5-5 5z"/></svg>
<svg viewBox="0 0 300 100" width="300" height="100" id="r-300x100" y="280"><path fill="#6FC7B2" d="M-.1 0h300v100H-.1z"/></svg>
<svg viewBox="0 0 60 30" width="60" height="30" id="r-60x30" y="380"><path fill="#3953A4" d="M15 30L0 15 15 0h30l15 15-15 15"/></svg>
<svg id="ribbon" viewBox="0 0 440 90" width="440" height="90" y="410"><style>.st0{fill:#FFFFFF;}.st1{fill:#603913;}.st2{fill:#886147;}</style><g id="ahXMLID_20_"><path id="ahXMLID_28_" class="st0" d="M121.5 83.3H8.8l28-28-28-25.6h112.7z"/><path id="ahXMLID_8_" class="st1" d="M121.5 29.7v53.7H8.8l28-28-28-25.7h112.7m3-3H1.1l5.7 5.2 25.7 23.5L6.7 81.2l-5.1 5.1h122.9V26.7z"/></g><g id="ahXMLID_19_"><path id="ahXMLID_24_" class="st0" d="M318.1 82.8h112.7l-28-28 28-25.6H318.1z"/><path id="ahXMLID_6_" class="st1" d="M430.8 29.2l-28 25.7 28 28H318.1V29.2h112.7m7.7-3H315.1v59.7H438l-5.1-5.1L407.1 55l25.7-23.5 5.7-5.3z"/></g><g id="ahXMLID_16_"><path id="ahXMLID_21_" class="st2" d="M343.1 58.5l-28 27.4V52.7h28z"/><path id="ahXMLID_7_" class="st1" d="M340.1 55.7v1.6l-22 21.5V55.6h22m3-2.9h-28v33.2l28-27.3v-5.9z"/></g><g id="ahXMLID_12_"><path id="ahXMLID_15_" class="st2" d="M95.8 58.3l28.7 28v-34H95.8z"/><path id="ahXMLID_2_" class="st1" d="M121.5 55.3v23.9L98.8 57.1v-1.7h22.7m3-3.1H95.8v6l28.7 28v-34z"/></g><g id="ahXMLID_4_"><path id="ahXMLID_11_" class="st0" d="M98.8 4h241.6v51.4H98.8z"/><path id="ahXMLID_3_" class="st1" d="M340.4 4v51.4H98.8V4h241.6m3-3H95.8v57.4h247.6V1z"/></g></svg>
<svg viewBox="0 0 40 40" width="40" height="40" id="s-40x40" y="500"><path fill="#6FCCDD" d="M0 0h40v40H0z"/></svg>
<svg viewBox="0 0 40 40" width="40" height="40" id="s-40x40-1" y="540"><path fill="#488FCD" d="M0 0h40v40H0z"/></svg>
<svg viewBox="0 0 40 40" width="40" height="40" id="s-40x40-2" y="580"><path fill="#5D52A3" d="M0 0h40v40H0z"/></svg>
<svg viewBox="0 0 50 50" width="50" height="50" id="s-50x50" y="620"><path fill="#F6EC13" d="M25 0l5.9 19.1H50L34.5 30.9l6 19.1L25 38.2 9.5 50l6-19.1L0 19.1h19.1"/></svg>
</svg>