<svg id="Layer_1" data-name="Layer 1" xmlns="http://www.w3.org/2000/svg" viewBox="0 0 200 200.98"><defs><style>.cls-2{fill:#fff}.cls-3{fill:#faaf40}.cls-4{fill:#231f20}.cls-5{fill:#09572f}</style></defs><path d="M.17-2.33v153.09a47.77 47.77 0 0 0 47.65 47.88h104.7a47.77 47.77 0 0 0 47.65-47.88V-2.33L158 28.84l-117-.16z" transform="translate(-.17 2.33)" fill="#00a551"/><path class="cls-2" d="M51.22 139.49L98.54 200l51.05-60.51-49.43-58.22-48.94 58.22z"/><ellipse class="cls-3" cx="54.13" cy="104.89" rx="34.36" ry="34.53"/><path class="cls-4" d="M54.3 142.08a39.53 39.53 0 1 1 39.36-39.53 39.49 39.49 0 0 1-39.36 39.53zm0-69.08a29.53 29.53 0 1 0 29.36 29.52A29.47 29.47 0 0 0 54.3 73z" transform="translate(-.17 2.33)"/><path class="cls-3" d="M181.69 102.55A34.36 34.36 0 1 1 147.33 68a34.44 34.44 0 0 1 34.36 34.55z" transform="translate(-.17 2.33)"/><path class="cls-4" d="M147.33 142.08a39.53 39.53 0 1 1 39.36-39.53 39.49 39.49 0 0 1-39.36 39.53zm0-69.06a29.53 29.53 0 1 0 29.36 29.53A29.48 29.48 0 0 0 147.33 73z" transform="translate(-.17 2.33)"/><path class="cls-5" d="M99.68 142.94L199.84-2.33l-39.9 30C144.27 11.18 124.14 1.9 99.68 1.9" transform="translate(-.17 2.33)"/><path d="M100.17 1.9c-24.58 0-44.81 9.39-60.49 26L.17-2.33l99.51 145.27.49-141" transform="translate(-.17 2.33)" fill="#006838"/><ellipse class="cls-4" cx="54.13" cy="104.89" rx="13.61" ry="13.68"/><ellipse class="cls-4" cx="147.16" cy="104.89" rx="13.61" ry="13.68"/><path class="cls-2" d="M166.78 113.63a11 11 0 1 1-11-11.08 11 11 0 0 1 11 11.08zM72.46 114.61a11 11 0 1 1-11-11.08 11.06 11.06 0 0 1 11 11.08z" transform="translate(-.17 2.33)"/><path class="cls-5" d="M44.09 198.64A13.65 13.65 0 0 1 57.7 185c7.52 0 13.62 3.52 13.62 13.68M129.1 198.64a13.62 13.62 0 1 1 27.23 0" transform="translate(-.17 2.33)"/></svg>